HIERARCHY
ROOT root
{
	OFFSET 0.000000 0.000000 0.000000
	CHANNELS 6 Xposition Yposition Zposition Zrotation Yrotation Xrotation
	JOINT lhip
	{
		OFFSET 0.058581 -0.082280 -0.017664
		CHANNELS 3 Zrotation Yrotation Xrotation
		JOINT lknee
		{
			OFFSET 0.043451 -0.386469 0.008037
			CHANNELS 3 Zrotation Yrotation Xrotation
			JOINT lankle
			{
				OFFSET -0.014790 -0.426874 -0.037428
				CHANNELS 3 Zrotation Yrotation Xrotation
				JOINT ltoe
				{
					OFFSET 0.041054 -0.060286 0.122042
					CHANNELS 3 Zrotation Yrotation Xrotation
					End Site
					{
						OFFSET 0.000000 0.000000 0.000000
					}
				}
			}
		}
	}
	JOINT rhip
	{
		OFFSET -0.060310 -0.090513 -0.013543
		CHANNELS 3 Zrotation Yrotation Xrotation
		JOINT rknee
		{
			OFFSET -0.043257 -0.383688 -0.004843
			CHANNELS 3 Zrotation Yrotation Xrotation
			JOINT rankle
			{
				OFFSET 0.019056 -0.420046 -0.034562
				CHANNELS 3 Zrotation Yrotation Xrotation
				JOINT rtoe
				{
					OFFSET -0.034840 -0.062106 0.130323
					CHANNELS 3 Zrotation Yrotation Xrotation
					End Site
					{
						OFFSET 0.000000 0.000000 0.000000
					}
				}
			}
		}
	}
	JOINT lowerback
	{
		OFFSET 0.004439 0.124404 -0.038385
		CHANNELS 3 Zrotation Yrotation Xrotation
		JOINT upperback
		{
			OFFSET 0.004488 0.137956 0.026820
			CHANNELS 3 Zrotation Yrotation Xrotation
			JOINT chest
			{
				OFFSET -0.002265 0.056032 0.002855
				CHANNELS 3 Zrotation Yrotation Xrotation
				JOINT lowerneck
				{
					OFFSET -0.013390 0.211636 -0.033468
					CHANNELS 3 Zrotation Yrotation Xrotation
					JOINT upperneck
					{
						OFFSET 0.010113 0.088937 0.050410
						CHANNELS 3 Zrotation Yrotation Xrotation
						End Site
						{
							OFFSET 0.000000 0.000000 0.000000
						}
					}
				}
				JOINT lclavicle
				{
					OFFSET 0.071702 0.114000 -0.018898
					CHANNELS 3 Zrotation Yrotation Xrotation
					JOINT lshoulder
					{
						OFFSET 0.122921 0.045205 -0.019046
						CHANNELS 3 Zrotation Yrotation Xrotation
						JOINT lelbow
						{
							OFFSET 0.255332 -0.015649 -0.022946
							CHANNELS 3 Zrotation Yrotation Xrotation
							JOINT lwrist
							{
								OFFSET 0.265709 0.012698 -0.007375
								CHANNELS 3 Zrotation Yrotation Xrotation
								End Site
								{
									OFFSET 0.000000 0.000000 0.000000
								}
							}
						}
					}
				}
				JOINT rclavicle
				{
					OFFSET -0.082954 0.112472 -0.023707
					CHANNELS 3 Zrotation Yrotation Xrotation
					JOINT rshoulder
					{
						OFFSET -0.113228 0.046853 -0.008472
						CHANNELS 3 Zrotation Yrotation Xrotation
						JOINT relbow
						{
							OFFSET -0.260127 -0.014369 -0.031269
							CHANNELS 3 Zrotation Yrotation Xrotation
							JOINT rwrist
							{
								OFFSET -0.269108 0.006794 -0.006027
								CHANNELS 3 Zrotation Yrotation Xrotation
								End Site
								{
									OFFSET 0.000000 0.000000 0.000000
								}
							}
						}
					}
				}
			}
		}
	}
}
MOTION
Frames: 14
Frame Time: 0.033333
0.076392 -1.195484 0.989287 -123.535274 -6.311648 100.421056 10.863749 0.602562 -17.870262 -0.422893 25.077206 24.843786 -6.006123 0.742940 1.859641 0.000000 -0.000000 0.000000 -0.706927 -4.421329 -7.265713 1.366012 -27.200267 -1.315653 -3.517067 -9.501413 -10.873432 0.000000 -0.000000 0.000000 4.296486 2.569817 -18.144261 0.951529 -3.093179 12.842172 -1.996568 -1.862911 -3.009236 -1.048727 9.288984 1.186494 -1.541228 17.855915 5.662507 -25.980172 -13.725119 10.183444 -58.242007 -16.278659 23.941629 -159.512384 -86.146385 172.065863 -2.392359 -23.131541 -34.587709 17.726092 21.350535 8.118423 65.035572 39.937721 37.514100 144.533189 82.937118 158.034419 -5.071556 27.222072 -33.290090 
0.073863 -1.195057 0.989431 -124.264627 -6.160665 99.804327 11.022043 0.182210 -17.808641 -1.045429 24.180478 25.198989 -5.967504 0.480645 1.096537 0.000000 -0.000000 0.000000 -0.770127 -4.832825 -6.465431 1.370587 -26.348064 -1.094189 -3.155159 -8.946331 -10.738089 0.000000 -0.000000 0.000000 4.500036 2.715667 -16.909647 0.707172 -3.023148 11.942514 -1.830626 -1.814006 -2.518788 -1.171308 9.375179 0.548276 -1.239766 18.167076 6.108963 -25.917894 -13.970618 9.691249 -58.464134 -15.556970 23.524026 -155.904687 -85.881392 169.073091 -2.242948 -23.414283 -34.767600 17.640231 21.720138 7.753816 64.947170 39.287290 36.871730 142.529269 82.425633 156.694668 -5.233371 27.270579 -32.692046 
0.070993 -1.194391 0.989395 -125.104854 -6.052617 99.313328 11.063762 0.040871 -17.958002 -1.050140 23.120100 25.736612 -6.633582 -0.203729 0.270185 0.000000 -0.000000 0.000000 -0.888177 -5.001630 -5.751456 1.362376 -25.827026 -1.038730 -2.973338 -8.542818 -10.935198 0.000000 -0.000000 0.000000 4.423133 2.863845 -16.253659 0.600439 -3.007350 11.765130 -1.737897 -1.801072 -2.374692 -1.112666 9.415538 0.488062 -1.191084 18.255583 5.970572 -25.868867 -14.086268 9.537951 -58.542852 -15.324812 23.292875 -154.695751 -85.923718 168.328714 -2.217711 -23.415368 -34.657333 17.754292 21.929866 7.720585 64.983836 38.944153 36.597885 140.915678 82.240426 155.168254 -5.639673 27.243924 -32.808445 
0.065855 -1.194522 0.989005 -126.711388 -5.856959 99.108013 11.172411 -0.296643 -18.376820 -1.261604 21.905759 25.039423 -7.395671 -1.018562 0.062621 0.000000 -0.000000 0.000000 -1.220927 -5.273668 -5.353363 1.488303 -24.939164 -0.757348 -2.686875 -7.774887 -11.162398 0.000000 -0.000000 0.000000 4.408146 3.177631 -15.902411 0.466692 -2.951873 11.828454 -1.792282 -1.718410 -2.353203 -1.001717 9.836292 0.342019 -1.159001 18.210347 5.874469 -25.919812 -13.950129 9.245954 -58.317653 -15.111424 23.199133 -151.428889 -85.767620 165.099221 -2.163649 -23.334173 -34.600027 17.908936 22.024159 7.941948 64.799861 39.066083 36.430414 139.704086 82.143319 153.920257 -5.721908 27.067985 -32.757328 
0.063861 -1.194776 0.989027 -127.274715 -5.746244 98.956845 11.283493 -0.481374 -18.298424 -1.394149 21.499768 24.367549 -7.962523 -1.353017 0.567275 0.000000 -0.000000 0.000000 -1.342717 -5.288215 -5.085815 1.568085 -24.704570 -0.745202 -2.606841 -7.422243 -11.122791 0.000000 -0.000000 0.000000 4.419426 3.310760 -15.787359 0.432286 -2.929939 12.097264 -1.806350 -1.710643 -2.462173 -1.001847 10.140841 0.332131 -1.219443 18.285172 5.696949 -25.967764 -14.049661 9.167391 -58.325446 -15.006707 23.284016 -152.365760 -85.878195 166.146354 -2.197960 -23.487871 -34.537358 17.923054 22.098103 7.840784 64.627209 38.997978 36.334710 139.932189 82.162001 154.178047 -5.714817 27.030019 -32.774546 
0.060216 -1.194539 0.988637 -128.602379 -5.360696 99.030503 11.783547 -0.443311 -18.477212 -1.811287 20.075614 23.065748 -7.786985 -1.671924 0.135447 0.000000 -0.000000 0.000000 -1.242788 -5.123912 -5.052679 1.511161 -23.874023 -0.519543 -2.421283 -7.091016 -11.239835 0.000000 -0.000000 0.000000 4.385559 3.456347 -15.639086 0.430755 -2.720746 11.790613 -1.750373 -1.683065 -2.318290 -0.843307 10.439861 0.436302 -1.194838 18.376851 5.720151 -25.919616 -13.881154 9.185627 -58.367565 -14.887944 23.274770 -150.581651 -85.684084 164.651015 -1.467768 -23.097040 -34.716216 18.053515 22.023503 7.863661 64.519143 38.987884 36.224765 137.544091 82.040711 151.786689 -6.435043 27.098169 -33.588474 
0.056013 -1.195739 0.988386 -129.912892 -4.996822 99.097619 12.239018 -0.536065 -18.687953 -1.647769 19.333264 21.565002 -9.222675 -2.501290 1.484824 0.000000 -0.000000 0.000000 -1.309653 -4.901713 -5.065905 1.458136 -23.404593 -0.261869 -2.266701 -6.450047 -11.375561 0.000000 -0.000000 0.000000 4.493157 3.598629 -15.645134 0.314809 -2.569733 12.174696 -1.719574 -1.660187 -2.571382 -0.869577 10.770713 0.336931 -1.058120 18.470957 5.701872 -25.936268 -14.080183 9.060684 -58.639427 -14.549216 23.284187 -153.898175 -85.692191 168.019756 -1.089024 -22.864415 -34.360358 17.809812 22.213438 7.694530 64.377736 38.915459 35.864160 135.764744 81.634111 149.693052 -7.245585 27.010674 -33.517703 
0.050724 -1.196673 0.988182 -131.255308 -4.725501 99.138425 12.707795 -0.752631 -18.665446 -2.015426 18.722966 19.444079 -9.634505 -2.441042 2.269637 0.000000 -0.000000 0.000000 -1.646360 -4.641882 -4.928772 1.626283 -22.791674 -0.120730 -2.067803 -5.945744 -11.360034 0.000000 -0.000000 0.000000 4.543088 3.488376 -15.317074 0.139143 -2.618390 11.810331 -1.835055 -1.468105 -2.452145 -0.831657 11.268020 0.166755 -0.865016 18.821779 5.547755 -25.828163 -13.720835 8.745656 -58.859634 -14.274488 23.402159 -153.748489 -85.674880 167.535666 -0.940373 -22.723170 -34.558836 17.983911 22.099005 7.817663 64.381428 38.733202 35.825087 137.565997 81.710550 151.541934 -5.813430 26.771482 -32.636947 
0.045265 -1.198443 0.987884 -132.808884 -4.403901 99.453200 13.182659 -0.876681 -18.869954 -2.209225 17.870966 17.237796 -9.972692 -2.507526 3.222724 0.000000 -0.000000 0.000000 -2.027822 -4.384368 -5.265922 1.839876 -22.077535 0.234212 -1.867739 -5.456906 -11.530147 0.000000 -0.000000 0.000000 4.541658 3.389613 -15.302689 0.037030 -2.582976 11.610105 -1.910016 -1.333806 -2.521964 -0.689848 11.825171 0.294794 -0.639382 19.286766 5.699795 -25.832651 -13.375704 8.743656 -59.134888 -14.205223 23.442730 -152.576252 -85.816412 166.171532 0.044151 -22.128995 -34.990785 18.185099 21.967126 8.126718 64.416409 38.845844 35.784404 134.780362 81.752705 148.642350 -6.297262 27.060895 -33.166455 
0.039047 -1.201160 0.987863 -134.480077 -4.060949 99.659672 13.758742 -1.206576 -18.822115 -2.558754 16.875657 14.899142 -10.283395 -2.106086 3.571744 0.000000 -0.000000 0.000000 -2.574484 -3.855561 -5.506744 2.122066 -21.257972 0.533700 -1.562838 -5.179424 -11.501254 0.000000 -0.000000 0.000000 4.438137 3.357284 -15.254684 0.084256 -2.485068 11.790817 -1.861952 -1.305907 -2.445371 -0.498766 12.399811 -0.145613 -0.791439 19.568520 5.660586 -26.134385 -13.258341 8.600153 -59.300363 -14.301685 23.788327 -154.072317 -86.198582 166.917262 1.203015 -21.778730 -35.745355 18.424842 21.760815 7.971887 64.140258 38.806307 35.999229 133.529921 81.874553 147.248422 -6.464322 27.277422 -33.106919 
0.032372 -1.204036 0.987665 -136.455753 -3.511547 99.870281 14.486507 -1.059677 -18.747544 -2.801125 15.607545 12.923611 -10.989108 -2.146768 3.202041 0.000000 -0.000000 0.000000 -2.842636 -3.484754 -5.793830 2.205873 -20.204532 0.853524 -1.168457 -4.664332 -11.467021 0.000000 -0.000000 0.000000 4.652260 3.284236 -14.708075 -0.020603 -2.321216 11.424553 -1.925864 -1.227611 -2.443883 -0.540258 12.669424 -0.481728 -0.425322 19.920659 5.940701 -26.103755 -13.092843 8.388482 -59.498497 -14.032588 23.946042 -152.091355 -86.498051 164.722241 2.676125 -20.817600 -36.588579 18.812671 21.756701 8.011148 63.565098 38.541103 35.674194 130.510111 81.692519 144.094458 -7.397297 27.196350 -33.445731 
0.025174 -1.208526 0.987491 -138.834339 -3.100273 100.270634 15.031553 -1.145774 -18.738811 -2.985008 14.707127 10.802716 -10.958998 -2.082420 2.964969 0.000000 -0.000000 0.000000 -3.717598 -3.031119 -6.687415 2.649059 -19.433886 1.669614 -0.476728 -3.712481 -11.600235 0.000000 -0.000000 0.000000 4.486636 3.571575 -14.691406 0.102447 -2.068907 11.923112 -1.919586 -1.393986 -2.482745 -0.238363 13.415826 -0.849478 -0.471633 19.684187 5.916146 -26.443089 -13.189276 8.528619 -59.225145 -14.093802 24.115611 -152.400222 -87.430568 164.540378 5.817964 -21.794154 -37.160684 19.300928 21.586541 8.021385 62.875546 38.341523 35.497495 127.227276 81.799702 140.380346 -8.591465 27.450992 -34.228320 
0.017327 -1.214033 0.987564 -141.475670 -2.370233 100.595567 15.753872 -0.887932 -18.597833 -3.074397 12.942557 9.032535 -11.101819 -2.365870 2.141661 0.000000 -0.000000 0.000000 -4.245899 -2.493976 -7.516462 3.007415 -18.331066 2.293048 0.056905 -2.922874 -11.555188 0.000000 -0.000000 0.000000 4.813066 3.094752 -13.698137 0.136785 -1.775947 11.758180 -1.841367 -1.105043 -2.802237 -0.173444 13.530160 -1.162101 -0.479258 19.834696 6.100524 -26.875603 -12.685948 8.352812 -59.239786 -13.803408 23.993117 -153.612256 -88.603190 164.958042 7.095149 -21.725397 -37.669346 19.797894 21.472728 8.180976 62.108628 38.531346 34.874337 120.733914 81.598951 133.765963 -6.426228 28.279306 -34.444867 
0.009066 -1.220881 0.987105 -144.420067 -1.512370 101.143996 16.628528 -0.683500 -18.739415 -3.078243 11.400955 7.559155 -10.800976 -2.579461 1.122403 0.000000 -0.000000 0.000000 -4.678455 -1.639313 -8.688236 3.363846 -16.820460 2.706844 0.368491 -2.711453 -11.319312 0.000000 -0.000000 0.000000 4.877589 3.110736 -13.171979 0.391644 -1.204261 11.886667 -1.563510 -1.345234 -2.562311 -0.244064 13.180919 -1.920727 -0.508589 19.328459 6.563279 -27.347252 -12.446738 8.232147 -58.822775 -13.752767 23.637752 177.734410 -89.930075 -167.178020 9.354629 -20.315102 -37.572639 20.128480 21.339304 7.919603 61.117317 37.595975 34.621669 120.943197 81.851807 133.060348 -8.003449 27.640707 -33.892837 
